HIERARCHY
ROOT Hips
{
    OFFSET   0.000000   0.000000   0.000000
    CHANNELS 6 Xposition Yposition Zposition Zrotation Xrotation Yrotation
    JOINT Chest
    {
        OFFSET   0.000000   8.007230   0.000000
        CHANNELS 3 Zrotation Xrotation Yrotation
        JOINT Chest2
        {
            OFFSET   0.000000  22.077100   0.000000
            CHANNELS 3 Zrotation Xrotation Yrotation
            JOINT Neck
            {
                OFFSET   0.000000  23.254800  -0.000021
                CHANNELS 3 Zrotation Xrotation Yrotation
                JOINT Head
                {
                    OFFSET   0.000000  14.370000   1.956610
                    CHANNELS 3 Zrotation Xrotation Yrotation
                    End Site
                    {
                        OFFSET   0.000000  19.566000   0.000000
                    }
                }
            }
            JOINT LeftCollar
            {
                OFFSET   3.911900  19.017000  -0.467063
                CHANNELS 3 Zrotation Xrotation Yrotation
                JOINT LeftShoulder
                {
                    OFFSET  10.383700   0.000000   0.000000
                    CHANNELS 3 Zrotation Xrotation Yrotation
                    JOINT LeftElbow
                    {
                        OFFSET  26.662100   0.001529   0.000325
                        CHANNELS 3 Zrotation Xrotation Yrotation
                        JOINT LeftWrist
                        {
                            OFFSET  28.869000  -0.000011  -0.000096
                            CHANNELS 3 Zrotation Xrotation Yrotation
                            JOINT LeftFinger0
                            {
                                OFFSET   2.044650  -2.323460   3.252850
                                CHANNELS 3 Zrotation Xrotation Yrotation
                                JOINT LeftFinger01
                                {
                                    OFFSET   3.088130   0.000000   0.000000
                                    CHANNELS 3 Zrotation Xrotation Yrotation
                                    JOINT LeftFinger02
                                    {
                                        OFFSET   2.639460   0.000000   0.000000
                                        CHANNELS 3 Zrotation Xrotation Yrotation
                                        End Site
                                        {
                                            OFFSET   2.582190   0.000000   0.000000
                                        }
                                    }
                                }
                            }
                            JOINT LeftFinger1
                            {
                                OFFSET   8.364480   0.000000   3.252850
                                CHANNELS 3 Zrotation Xrotation Yrotation
                                JOINT LeftFinger11
                                {
                                    OFFSET   4.646930   0.000000   0.000000
                                    CHANNELS 3 Zrotation Xrotation Yrotation
                                    JOINT LeftFinger12
                                    {
                                        OFFSET   2.323460   0.000000   0.000000
                                        CHANNELS 3 Zrotation Xrotation Yrotation
                                        End Site
                                        {
                                            OFFSET   2.273050   0.000000   0.000000
                                        }
                                    }
                                }
                            }
                            JOINT LeftFinger2
                            {
                                OFFSET   8.364480   0.000016   1.078090
                                CHANNELS 3 Zrotation Xrotation Yrotation
                                JOINT LeftFinger21
                                {
                                    OFFSET   5.111620   0.000000   0.000000
                                    CHANNELS 3 Zrotation Xrotation Yrotation
                                    JOINT LeftFinger22
                                    {
                                        OFFSET   2.788160   0.000017   0.000000
                                        CHANNELS 3 Zrotation Xrotation Yrotation
                                        End Site
                                        {
                                            OFFSET   2.727660   0.000000   0.000000
                                        }
                                    }
                                }
                            }
                            JOINT LeftFinger3
                            {
                                OFFSET   7.899780   0.000015  -1.078090
                                CHANNELS 3 Zrotation Xrotation Yrotation
                                JOINT LeftFinger31
                                {
                                    OFFSET   4.646920   0.000000   0.000000
                                    CHANNELS 3 Zrotation Xrotation Yrotation
                                    JOINT LeftFinger32
                                    {
                                        OFFSET   2.323470   0.000000   0.000000
                                        CHANNELS 3 Zrotation Xrotation Yrotation
                                        End Site
                                        {
                                            OFFSET   2.273050   0.000000   0.000000
                                        }
                                    }
                                }
                            }
                            JOINT LeftFinger4
                            {
                                OFFSET   7.435090   0.000000  -3.252850
                                CHANNELS 3 Zrotation Xrotation Yrotation
                                JOINT LeftFinger41
                                {
                                    OFFSET   3.717550   0.000000   0.000000
                                    CHANNELS 3 Zrotation Xrotation Yrotation
                                    JOINT LeftFinger42
                                    {
                                        OFFSET   1.858760   0.000000   0.000000
                                        CHANNELS 3 Zrotation Xrotation Yrotation
                                        End Site
                                        {
                                            OFFSET   1.818440   0.000000   0.000000
                                        }
                                    }
                                }
                            }
                        }
                    }
                }
            }
            JOINT RightCollar
            {
                OFFSET  -3.911900  19.017000  -0.467062
                CHANNELS 3 Zrotation Xrotation Yrotation
                JOINT RightShoulder
                {
                    OFFSET -10.383700   0.000015   0.000000
                    CHANNELS 3 Zrotation Xrotation Yrotation
                    JOINT RightElbow
                    {
                        OFFSET -26.662100   0.001341   0.000385
                        CHANNELS 3 Zrotation Xrotation Yrotation
                        JOINT RightWrist
                        {
                            OFFSET -28.869000   0.000025  -0.000080
                            CHANNELS 3 Zrotation Xrotation Yrotation
                            JOINT RightFinger0
                            {
                                OFFSET  -2.044650  -2.323490   3.252850
                                CHANNELS 3 Zrotation Xrotation Yrotation
                                JOINT RightFinger01
                                {
                                    OFFSET  -3.088130   0.000000   0.000000
                                    CHANNELS 3 Zrotation Xrotation Yrotation
                                    JOINT RightFinger02
                                    {
                                        OFFSET  -2.639460   0.000000   0.000000
                                        CHANNELS 3 Zrotation Xrotation Yrotation
                                        End Site
                                        {
                                            OFFSET  -2.582190   0.000000   0.000000
                                        }
                                    }
                                }
                            }
                            JOINT RightFinger1
                            {
                                OFFSET  -8.364480   0.000000   3.252850
                                CHANNELS 3 Zrotation Xrotation Yrotation
                                JOINT RightFinger11
                                {
                                    OFFSET  -4.646930   0.000000   0.000000
                                    CHANNELS 3 Zrotation Xrotation Yrotation
                                    JOINT RightFinger12
                                    {
                                        OFFSET  -2.323470   0.000000   0.000000
                                        CHANNELS 3 Zrotation Xrotation Yrotation
                                        End Site
                                        {
                                            OFFSET  -2.273050   0.000000   0.000000
                                        }
                                    }
                                }
                            }
                            JOINT RightFinger2
                            {
                                OFFSET  -8.364480   0.000000   1.078090
                                CHANNELS 3 Zrotation Xrotation Yrotation
                                JOINT RightFinger21
                                {
                                    OFFSET  -5.111610   0.000000   0.000000
                                    CHANNELS 3 Zrotation Xrotation Yrotation
                                    JOINT RightFinger22
                                    {
                                        OFFSET  -2.788160   0.000000   0.000000
                                        CHANNELS 3 Zrotation Xrotation Yrotation
                                        End Site
                                        {
                                            OFFSET  -2.727660   0.000000   0.000000
                                        }
                                    }
                                }
                            }
                            JOINT RightFinger3
                            {
                                OFFSET  -7.899780   0.000000  -1.078090
                                CHANNELS 3 Zrotation Xrotation Yrotation
                                JOINT RightFinger31
                                {
                                    OFFSET  -4.646920   0.000000   0.000000
                                    CHANNELS 3 Zrotation Xrotation Yrotation
                                    JOINT RightFinger32
                                    {
                                        OFFSET  -2.323470   0.000000   0.000000
                                        CHANNELS 3 Zrotation Xrotation Yrotation
                                        End Site
                                        {
                                            OFFSET  -2.273050   0.000000   0.000000
                                        }
                                    }
                                }
                            }
                            JOINT RightFinger4
                            {
                                OFFSET  -7.435090   0.000000  -3.252850
                                CHANNELS 3 Zrotation Xrotation Yrotation
                                JOINT RightFinger41
                                {
                                    OFFSET  -3.717550   0.000000   0.000000
                                    CHANNELS 3 Zrotation Xrotation Yrotation
                                    JOINT RightFinger42
                                    {
                                        OFFSET  -1.858770   0.000000   0.000000
                                        CHANNELS 3 Zrotation Xrotation Yrotation
                                        End Site
                                        {
                                            OFFSET  -1.818440   0.000000   0.000000
                                        }
                                    }
                                }
                            }
                        }
                    }
                }
            }
        }
    }
    JOINT LeftHip
    {
        OFFSET   9.783010   0.000000   0.000000
        CHANNELS 3 Zrotation Xrotation Yrotation
        JOINT LeftKnee
        {
            OFFSET   0.000070 -41.789100   0.000028
            CHANNELS 3 Zrotation Xrotation Yrotation
            JOINT LeftAnkle
            {
                OFFSET   0.000087 -41.133200  -0.000100
                CHANNELS 3 Zrotation Xrotation Yrotation
                JOINT LeftToe
                {
                    OFFSET   0.000000  -6.358960  14.674500
                    CHANNELS 3 Zrotation Xrotation Yrotation
                    End Site
                    {
                        OFFSET   0.000000   0.000000   3.913200
                    }
                }
            }
        }
    }
    JOINT RightHip
    {
        OFFSET  -9.783020   0.000000   0.000000
        CHANNELS 3 Zrotation Xrotation Yrotation
        JOINT RightKnee
        {
            OFFSET   0.000044 -41.789100  -0.000870
            CHANNELS 3 Zrotation Xrotation Yrotation
            JOINT RightAnkle
            {
                OFFSET  -0.000090 -41.133200  -0.000245
                CHANNELS 3 Zrotation Xrotation Yrotation
                JOINT RightToe
                {
                    OFFSET   0.000000  -6.358960  14.674500
                    CHANNELS 3 Zrotation Xrotation Yrotation
                    End Site
                    {
                        OFFSET   0.000000   0.000000   3.913200
                    }
                }
            }
        }
    }
}
MOTION
Frames: 4
Frame Time:   0.016667
 -0.650698  89.527300  -0.653988  -1.534590  -1.651950  -2.386830   1.017740   3.471800  -1.179700   2.112800   6.921250  -2.427800  -1.462110  -1.233690  -0.024419  -2.397410  -2.497260  10.747600  -8.766450  -0.017129  12.425500 -74.054800   8.455780   3.386070   1.574880   6.920500 -21.533000  10.138400  -7.788330  -2.501930  43.960200  39.986900 -56.189700 -33.100500  -0.000938   0.001094 -11.545500   0.010573  -0.003263 -38.790000   0.039909  -0.049664 -31.737200  -0.009262   0.000866 -22.216100  -0.001307   0.001299 -31.356100   0.033163  -0.054397 -47.049200   0.004743  -0.002034 -31.324700   0.002722   0.001600 -29.413300  -4.944610   8.691080 -44.680800   0.003438   0.003070 -29.756900  -0.007523   0.002569 -36.382300  -8.589480  11.454300 -55.883900   0.004362   0.004860 -37.218600  -0.000355   0.003843   8.014280   4.510440   9.781640  66.914200   0.282364   0.380580   4.329520  -3.525960  15.939500 -13.898200   1.719070   4.945780 -35.293400  23.377400  53.610000  32.006600   0.009347  -0.005720  11.003300   0.005549   0.002195  30.171600   2.154270   3.699600  24.742800  -0.009466  -0.000559  17.320000  -0.007574  -0.002588  28.422100  -0.206504  -0.381572  35.343600  -0.002953  -0.000209  23.538800  -0.001830   0.002242  28.516400  -1.107180  -2.036920  36.556100  -0.003581   0.005340  24.346400  -0.000624   0.000000  31.995700  -1.228830  -1.965950  48.025100  -0.005060   0.001982  31.984800  -0.007419   0.003503   3.299530   3.109800   2.050480   0.042867   0.484687  10.891800  -2.125840  -2.365270   0.456961   0.000000   0.000000   0.000000   1.476840   1.786950  -3.894360  -1.910080   3.666180  -7.890250   1.603480  -3.558950  -1.067900  -0.000000   0.000000   0.000000
 -0.650667  89.527300  -0.648334  -1.534380  -1.657620  -2.373710   1.016840   3.479570  -1.175820   2.110960   6.936890  -2.420150  -1.462070  -1.209490  -0.024434  -2.399820  -2.448100  10.748400  -8.766790  -0.016903  12.419500 -74.045800   8.484650   3.374820   1.568550   6.906060 -21.528100  10.137100  -7.787440  -2.512110  43.965300  39.988500 -56.207100 -33.095800  -0.000942   0.001087 -11.545500   0.010573  -0.003256 -38.790100   0.054002  -0.067207 -31.737300  -0.009260   0.000867 -22.216200  -0.001312   0.001302 -31.356000   0.044864  -0.073621 -47.043200   0.004757  -0.002046 -31.324700   0.002728   0.001605 -29.416300  -4.935710   8.675540 -44.680900   0.003434   0.003083 -29.757000  -0.007530   0.002581 -36.387400  -8.577240  11.437700 -55.883900   0.004355   0.004874 -37.218600  -0.000356   0.003854   8.023970   4.500170   9.786150  66.903800   0.301727   0.366698   4.334950  -3.503950  15.939100 -13.892100   1.738270   4.951450 -35.296600  23.369800  53.620800  31.998800   0.009348  -0.005737  10.999400   0.005562   0.002172  30.160000   2.163770   3.718010  24.733800  -0.009470  -0.000557  17.313700  -0.007571  -0.002585  28.422100  -0.197809  -0.365523  35.327900  -0.002952  -0.000207  23.528400  -0.001827   0.002246  28.516800  -1.098580  -2.021150  36.547300  -0.003573   0.005343  24.340500  -0.000621   0.000000  31.985700  -1.218960  -1.950930  48.009800  -0.005053   0.001963  31.974600  -0.007406   0.003498   3.299260   3.123020   2.045310   0.042560   0.475225  10.885600  -2.125530  -2.363200   0.453885  -0.000000   0.000000   0.000000   1.477650   1.799000  -3.894420  -1.910390   3.666190  -7.890250   1.601140  -3.562920  -1.088720  -0.000000   0.000000   0.000000
 -0.650584  89.527300  -0.638410  -1.534060  -1.667870  -2.352160   1.014700   3.492760  -1.168480   2.106550   6.963490  -2.405590  -1.462030  -1.169510  -0.024457  -2.404710  -2.366970  10.748900  -8.767260  -0.016678  12.409500 -74.031600   8.525870   3.351710   1.561480   6.891900 -21.517300  10.135400  -7.781610  -2.526030  43.970400  39.990000 -56.224500 -33.091100  -0.000947   0.001078 -11.545500   0.010578  -0.003249 -38.790400   0.068094  -0.084750 -31.737600  -0.009252   0.000871 -22.216400  -0.001325   0.001312 -31.356000   0.056565  -0.092845 -47.034100   0.004790  -0.002077 -31.324700   0.002746   0.001619 -29.419300  -4.926810   8.660010 -44.680900   0.003426   0.003116 -29.757100  -0.007549   0.002612 -36.392400  -8.565000  11.421200 -55.883900   0.004340   0.004910 -37.218600  -0.000360   0.003883   8.042490   4.476670   9.796540  66.893400   0.336195   0.339454   4.340410  -3.481970  15.938800 -13.883700   1.757450   4.962910 -35.290500  23.351900  53.625600  31.986900   0.009352  -0.005769  10.993400   0.005589   0.002120  30.148200   2.175470   3.739400  24.724800  -0.009478  -0.000553  17.307400  -0.007565  -0.002579  28.422100  -0.185016  -0.341902  35.312100  -0.002946  -0.000199  23.517900  -0.001820   0.002257  28.517600  -1.086040  -1.998120  36.538500  -0.003553   0.005352  24.334600  -0.000615   0.000000  31.976000  -1.204740  -1.928900  47.994400  -0.005033   0.001919  31.964300  -0.007372   0.003487   3.298780   3.147190   2.036780   0.040280   0.458046  10.879500  -2.125140  -2.360060   0.446528  -0.000000   0.000000   0.000000   1.478930   1.818190  -3.894520  -1.910700   3.666260  -7.890250   1.595720  -3.569850  -1.124520  -0.000000   0.000000  -0.000000
 -0.650436  89.526900  -0.629575  -1.533810  -1.676530  -2.335330   1.011390   3.503070  -1.161600   2.099750   6.984280  -2.391810  -1.464460  -1.139000  -0.024470  -2.410140  -2.305210  10.747900  -8.767220  -0.017680  12.402800 -74.021200   8.537910   3.326630   1.557830   6.897530 -21.505100  10.133800  -7.762490  -2.530840  43.957100  39.982400 -56.200600 -33.099100  -0.000945   0.001073 -11.549500   0.010596  -0.003253 -38.790500   0.052366  -0.065187 -31.737700  -0.009238   0.000877 -22.216400  -0.001344   0.001329 -31.355300   0.043501  -0.071406 -47.031500   0.004841  -0.002124 -31.324000   0.002774   0.001638 -29.417400  -4.933350   8.672100 -44.680800   0.003414   0.003166 -29.757100  -0.007579   0.002659 -36.387100  -8.576980  11.439700 -55.876600   0.004317   0.004966 -37.213800  -0.000364   0.003926   8.066210   4.445130   9.815730  66.895100   0.363839   0.304793   4.334630  -3.483630  15.948100 -13.882500   1.757240   4.976550 -35.279400  23.314400  53.596200  31.982000   0.009370  -0.005806  10.991000   0.005626   0.002049  30.149000   2.176950   3.741460  24.725600  -0.009489  -0.000544  17.307900  -0.007561  -0.002572  28.422000  -0.179147  -0.331052  35.316600  -0.002934  -0.000184  23.520900  -0.001810   0.002275  28.517900  -1.081210  -1.989100  36.553600  -0.003525   0.005363  24.344700  -0.000607  -0.000000  31.983300  -1.199570  -1.920050  48.004900  -0.005002   0.001858  31.971300  -0.007322   0.003475   3.301630   3.170380   2.029590   0.034445   0.440193  10.879500  -2.125040  -2.357830   0.435531   0.000000   0.000000  -0.000000   1.479570   1.828210  -3.894660  -1.909730   3.670210  -7.886960   1.588030  -3.575850  -1.155460   0.000000   0.000000  -0.000000
